HIERARCHY
ROOT joint_0
{
	OFFSET 0.000000 0.000000 0.000000
	CHANNELS 6 Xposition Yposition Zposition Zrotation Yrotation Xrotation 
	JOINT joint_1
	{
		OFFSET 6.590088 -1.122192 114.019043
		CHANNELS 3 Zrotation Yrotation Xrotation
		JOINT joint_2
		{
			OFFSET -5.956055 -0.820435 104.151001
			CHANNELS 3 Zrotation Yrotation Xrotation
			JOINT joint_3
			{
				OFFSET -7.343506 -1.103027 103.942993
				CHANNELS 3 Zrotation Yrotation Xrotation
				JOINT joint_4
				{
					OFFSET 3.109131 -2.857056 147.715942
					CHANNELS 3 Zrotation Yrotation Xrotation
					JOINT joint_5
					{
						OFFSET 28.592285 -2.852295 87.703979
						CHANNELS 3 Zrotation Yrotation Xrotation
						End Site
						{
							OFFSET 0.000000 0.000000 0.000000
						}
					}
				}
				JOINT joint_6
				{
					OFFSET -0.332520 -33.687378 82.401978
					CHANNELS 3 Zrotation Yrotation Xrotation
					JOINT joint_7
					{
						OFFSET -7.397461 -168.719177 -22.750977
						CHANNELS 3 Zrotation Yrotation Xrotation
						JOINT joint_8
						{
							OFFSET 17.065918 -24.903137 -272.721069
							CHANNELS 3 Zrotation Yrotation Xrotation
							JOINT joint_9
							{
								OFFSET 33.311279 -37.031616 -278.192993
								CHANNELS 3 Zrotation Yrotation Xrotation
								End Site
								{
									OFFSET 0.000000 0.000000 0.000000
								}
							}
						}
					}
				}
				JOINT joint_10
				{
					OFFSET 3.914307 30.461670 83.552979
					CHANNELS 3 Zrotation Yrotation Xrotation
					JOINT joint_11
					{
						OFFSET 15.543701 166.845459 -30.963013
						CHANNELS 3 Zrotation Yrotation Xrotation
						JOINT joint_12
						{
							OFFSET 35.734863 35.017700 -269.786011
							CHANNELS 3 Zrotation Yrotation Xrotation
							JOINT joint_13
							{
								OFFSET 70.506592 13.977783 -273.320007
								CHANNELS 3 Zrotation Yrotation Xrotation
								End Site
								{
									OFFSET 0.000000 0.000000 0.000000
								}
							}
						}
					}
				}
			}
		}
	}
	JOINT joint_14
	{
		OFFSET -0.314697 -95.093994 -116.004028
		CHANNELS 3 Zrotation Yrotation Xrotation
		JOINT joint_15
		{
			OFFSET -22.490723 2.017883 -455.510986
			CHANNELS 3 Zrotation Yrotation Xrotation
			JOINT joint_16
			{
				OFFSET -46.427490 7.144104 -496.360985
				CHANNELS 3 Zrotation Yrotation Xrotation
				JOINT joint_17
				{
					OFFSET 209.055420 -37.122803 -85.191002
					CHANNELS 3 Zrotation Yrotation Xrotation
					End Site
					{
						OFFSET 0.000000 0.000000 0.000000
					}
				}
			}
		}
	}
	JOINT joint_18
	{
		OFFSET 5.652832 94.642578 -116.244019
		CHANNELS 3 Zrotation Yrotation Xrotation
		JOINT joint_19
		{
			OFFSET -12.379883 -7.332642 -455.843994
			CHANNELS 3 Zrotation Yrotation Xrotation
			JOINT joint_20
			{
				OFFSET -45.227051 -8.172241 -496.457985
				CHANNELS 3 Zrotation Yrotation Xrotation
				JOINT joint_21
				{
					OFFSET 210.522949 -11.530396 -88.809004
					CHANNELS 3 Zrotation Yrotation Xrotation
					End Site
					{
						OFFSET 0.000000 0.000000 0.000000
					}
				}
			}
		}
	}
}
MOTION
Frames: 16
Frame Time: 0.016667
-2662.205566 991.284302 1182.110962 1.739902 -1.876043 0.276309 0.044781 4.114289 0.941550 0.049715 -0.772823 -0.196529 0.103118 0.876130 0.164687 0.095011 1.834559 -0.124519 0.000000 0.000000 0.000000 -0.450349 1.446166 -0.161500 -0.059957 1.214363 3.952539 -0.500101 1.707197 -2.201503 0.000000 0.000000 0.000000 3.232663 -0.041844 -1.222799 -0.239430 -0.531204 -2.860088 1.048503 2.750590 3.624987 0.000000 0.000000 0.000000 0.480069 0.008779 -2.378845 0.389383 2.223395 -0.371598 0.305043 1.462401 0.383813 0.000000 0.000000 0.000000 15.060147 -1.180297 -0.783558 14.777877 2.858587 5.088384 15.414871 0.039891 6.443477 0.000000 0.000000 0.000000 
-2662.530762 991.802063 1182.270020 1.183936 -1.808447 0.305405 0.200169 3.989615 0.922766 0.202763 -0.823066 -0.166556 0.253985 0.910150 0.143594 0.115573 1.943617 -0.177332 0.000000 0.000000 0.000000 -0.506950 1.515767 -0.198475 -0.058469 1.272094 4.010531 -0.494683 1.649668 -2.224349 0.000000 0.000000 0.000000 3.330931 -0.009714 -1.222290 -0.244548 -0.512560 -2.920218 1.055821 2.774259 3.650885 0.000000 0.000000 0.000000 0.664935 -0.077821 -2.411201 0.573539 2.079838 -0.435179 0.478123 1.620104 0.482135 0.000000 0.000000 0.000000 15.252081 -1.024873 -0.868848 14.978130 2.508259 5.034081 15.568812 0.119567 6.514415 0.000000 0.000000 0.000000 
-2662.733154 992.347778 1182.425049 0.551662 -1.776246 0.327571 0.381610 3.890363 0.917805 0.381764 -0.892534 -0.131910 0.430764 0.961994 0.117707 0.142424 2.077372 -0.247206 0.000000 0.000000 0.000000 -0.573808 1.598666 -0.255689 -0.056461 1.339277 4.103551 -0.490797 1.577551 -2.276216 0.000000 0.000000 0.000000 3.450983 0.026007 -1.211770 -0.252144 -0.491888 -3.001903 1.063072 2.795036 3.677425 0.000000 0.000000 0.000000 0.872821 -0.120903 -2.436537 0.781462 1.926340 -0.501291 0.674138 1.771565 0.588663 0.000000 0.000000 0.000000 15.466246 -0.811215 -0.937680 15.202725 2.140708 4.978100 15.747626 0.188551 6.594833 0.000000 0.000000 0.000000 
-2662.563232 992.713196 1182.397949 0.949525 -2.234196 0.325128 0.229155 4.257159 0.958036 0.231744 -0.974793 -0.147003 0.284568 1.053303 0.116949 0.160470 2.132988 -0.296757 0.000000 0.000000 0.000000 -0.642292 1.678427 -0.340479 -0.049579 1.398007 4.271855 -0.486112 1.482099 -2.347225 0.000000 0.000000 0.000000 3.468344 0.042119 -1.154622 -0.256357 -0.465438 -3.100167 1.068747 2.762646 3.706429 0.000000 0.000000 0.000000 0.739735 0.531435 -2.396267 0.661567 1.768388 -0.596867 0.552447 1.769425 0.538878 0.000000 0.000000 0.000000 15.327675 -0.211296 -0.893871 15.083849 1.890702 5.012121 15.629192 0.213078 6.546681 0.000000 0.000000 0.000000 
-2662.201416 992.763123 1182.071045 3.341180 -3.665768 0.246776 -0.584542 5.648557 1.026407 -0.565905 -1.087954 -0.199348 -0.503033 1.207653 0.165164 0.162791 1.985929 -0.315205 0.000000 0.000000 0.000000 -0.661190 1.701432 -0.491296 -0.031332 1.395984 4.585869 -0.481845 1.342488 -2.470742 0.000000 0.000000 0.000000 3.277438 -0.016487 -1.000487 -0.259770 -0.462064 -3.244690 1.072818 2.628880 3.745049 0.000000 0.000000 0.000000 -0.055730 2.561477 -2.242193 -0.097019 1.529121 -0.712212 -0.183972 1.553983 0.201592 0.000000 0.000000 0.000000 14.506052 1.175441 -0.633259 14.312978 1.797330 5.205464 14.936142 0.190708 6.253199 0.000000 0.000000 0.000000 
-2661.468262 992.632568 1181.561035 6.777402 -5.601907 0.059801 -1.729461 7.546322 0.982108 -1.690143 -1.202005 -0.141722 -1.627749 1.359531 0.234680 0.156209 1.747071 -0.314540 0.000000 0.000000 0.000000 -0.690263 1.730170 -0.706362 -0.006826 1.389781 5.016062 -0.477072 1.179568 -2.616088 0.000000 0.000000 0.000000 2.995091 -0.089943 -0.759812 -0.264886 -0.443734 -3.447878 1.076298 2.442245 3.791103 0.000000 0.000000 0.000000 -1.191837 5.304553 -2.029908 -1.187535 1.267223 -0.794106 -1.236356 1.294816 -0.271022 0.000000 0.000000 0.000000 13.316355 2.976694 -0.253467 13.211119 1.814229 5.485967 13.956872 0.120204 5.836070 0.000000 0.000000 0.000000 
-2659.566650 992.520203 1181.046997 9.477292 -7.053181 -0.130728 -2.583505 8.728529 0.815771 -2.543541 -1.250097 -0.005871 -2.492733 1.444679 0.282480 0.144757 1.679498 -0.284876 0.000000 0.000000 0.000000 -0.864621 1.911795 -0.887123 0.008540 1.521557 5.404512 -0.465905 1.049255 -2.672133 0.000000 0.000000 0.000000 2.830250 -0.032833 -0.530791 -0.260159 -0.317281 -3.632894 1.077163 2.297008 3.822998 0.000000 0.000000 0.000000 -2.069048 7.367719 -1.844737 -2.031298 1.218848 -0.874835 -2.053992 1.071192 -0.641039 0.000000 0.000000 0.000000 12.368919 4.333837 0.037434 12.343825 1.952584 5.737486 13.204860 -0.026702 5.509274 0.000000 0.000000 0.000000 
-2655.994385 992.398315 1180.556030 10.808292 -7.616063 -0.177521 -2.958512 8.595653 0.579737 -2.934373 -1.265720 0.050241 -2.889519 1.476856 0.300076 0.127901 1.999909 -0.205415 0.000000 0.000000 0.000000 -1.312174 2.297491 -0.932004 0.005366 1.835493 5.640887 -0.453870 1.028319 -2.601300 0.000000 0.000000 0.000000 2.847641 0.268657 -0.341854 -0.231229 0.014756 -3.749994 1.072518 2.237631 3.821129 0.000000 0.000000 0.000000 -2.477817 8.350950 -1.672592 -2.408718 1.201893 -1.129863 -2.438927 0.871974 -0.831500 0.000000 0.000000 0.000000 11.886773 4.871204 0.123561 11.889492 2.250714 5.931474 12.845418 -0.264741 5.340759 0.000000 0.000000 0.000000 
-2651.254883 992.294495 1180.060059 11.443188 -7.725475 -0.144690 -3.074973 7.783003 0.350424 -3.069309 -1.250445 0.031086 -3.024592 1.459653 0.302263 0.105663 2.491096 -0.096366 0.000000 0.000000 0.000000 -1.901465 2.833453 -0.939908 -0.006658 2.285983 5.817794 -0.435823 1.042246 -2.440511 0.000000 0.000000 0.000000 2.976211 0.696966 -0.167809 -0.191087 0.450616 -3.834685 1.064848 2.219784 3.802844 0.000000 0.000000 0.000000 -2.652879 8.702671 -1.518623 -2.555929 1.390549 -1.442848 -2.608282 0.617814 -0.944744 0.000000 0.000000 0.000000 11.641583 4.977628 0.124123 11.638614 2.674873 6.102719 12.686902 -0.567172 5.251578 0.000000 0.000000 0.000000 
-2646.064941 992.489136 1179.652954 11.609770 -7.703582 -0.153634 -2.959222 7.020258 0.323684 -2.974726 -1.216967 -0.035227 -2.926969 1.393439 0.296678 0.084327 2.779807 -0.011058 0.000000 0.000000 0.000000 -2.370880 3.491062 -1.032947 -0.016186 2.870112 6.009238 -0.387887 0.915058 -2.181683 0.000000 0.000000 0.000000 3.203655 1.040877 -0.095685 -0.160673 0.767433 -3.869345 1.058545 2.205044 3.793854 0.000000 0.000000 0.000000 -2.689513 8.391752 -1.491846 -2.597215 2.530073 -1.473245 -2.652776 0.190850 -1.038140 0.000000 0.000000 0.000000 11.557307 4.980592 0.200724 11.542896 3.129995 6.231607 12.673758 -0.898872 5.220757 0.000000 0.000000 0.000000 
-2640.340576 993.021851 1179.417969 11.094663 -7.583520 -0.145474 -2.489474 6.348400 0.407630 -2.518326 -1.096247 -0.029589 -2.474751 1.268616 0.271437 0.064726 2.724416 0.035720 0.000000 0.000000 0.000000 -2.604166 4.407145 -1.218255 -0.011120 3.739503 6.212956 -0.257464 0.413743 -1.657560 0.000000 0.000000 0.000000 3.596046 1.200705 -0.264763 -0.148010 0.831893 -3.781332 1.071429 2.269454 3.857611 0.000000 0.000000 0.000000 -2.533832 7.374722 -1.693112 -2.486791 4.762713 -1.163632 -2.514064 -0.418431 -1.089563 0.000000 0.000000 0.000000 11.704910 4.960677 0.306498 11.677652 3.589011 6.319843 12.877401 -1.214371 5.279650 0.000000 0.000000 0.000000 
-2634.165527 993.851990 1179.270996 10.079896 -7.310456 -0.124663 -1.777249 5.680051 0.594465 -1.826900 -0.952469 -0.011694 -1.789866 1.121865 0.235741 0.048321 2.479829 0.056463 0.000000 0.000000 0.000000 -2.716489 5.437873 -1.380883 0.007133 4.741937 6.384231 -0.090623 -0.252793 -1.037015 0.000000 0.000000 0.000000 4.092606 1.274516 -0.546951 -0.143219 0.771207 -3.615644 1.080761 2.335464 3.909187 0.000000 0.000000 0.000000 -2.228189 5.667472 -2.058757 -2.249618 7.919530 -0.623530 -2.214885 -1.014850 -1.073350 0.000000 0.000000 0.000000 12.026241 4.834547 0.417429 11.973787 4.070557 6.363668 13.232872 -1.523951 5.399983 0.000000 0.000000 0.000000 
-2628.504150 995.147400 1179.057007 9.282496 -7.004767 -0.245618 -1.164408 5.404985 1.079737 -1.287224 -0.942966 -0.153720 -1.244524 1.048877 0.219812 0.043264 2.145191 0.038663 0.000000 0.000000 0.000000 -2.783735 6.127523 -1.489455 0.016636 5.413480 6.528214 -0.018081 -0.562887 -0.799469 0.000000 0.000000 0.000000 4.475788 1.345192 -0.693085 -0.134773 0.745599 -3.481308 1.031801 2.151431 3.748356 0.000000 0.000000 0.000000 -1.982564 3.177332 -2.543303 -2.085651 12.383050 0.267606 -1.905957 -1.294423 -0.996177 0.000000 0.000000 0.000000 12.286934 4.626613 0.646856 12.193358 4.539844 6.352002 13.508050 -1.864663 5.483668 0.000000 0.000000 0.000000 
-2623.854492 997.221252 1178.863037 8.808294 -6.585548 -0.491314 -0.706940 5.532564 1.760137 -0.988479 -1.008717 -0.380484 -0.937220 1.089948 0.244762 0.056962 1.657219 -0.044524 0.000000 0.000000 0.000000 -2.812665 6.231759 -1.643823 -0.011750 5.503036 6.720297 -0.142043 -0.065408 -1.236088 0.000000 0.000000 0.000000 4.666171 1.438249 -0.604328 -0.126907 0.813927 -3.467470 0.887596 1.542378 3.256153 0.000000 0.000000 0.000000 -1.872021 -0.620415 -3.376891 -2.028068 18.986393 1.740886 -1.519436 -0.415138 -0.679298 0.000000 0.000000 0.000000 12.460421 4.249424 0.903043 12.288633 4.928675 6.314291 13.663442 -2.151401 5.516865 0.000000 0.000000 0.000000 
-2619.719238 999.759338 1178.599976 8.415229 -6.011476 -0.532823 -0.288523 5.777083 2.034817 -0.799760 -1.035527 -0.395817 -0.766072 1.176600 0.282325 0.079940 1.064824 -0.162199 0.000000 0.000000 0.000000 -2.803539 6.001728 -1.825427 -0.068475 5.264631 6.909237 -0.370488 0.816760 -2.036759 0.000000 0.000000 0.000000 4.745194 1.534490 -0.423298 -0.123757 0.915912 -3.456135 0.678740 0.695705 2.564699 0.000000 0.000000 0.000000 -1.881816 -5.351000 -4.717327 -1.882144 26.653823 3.403785 -0.862131 1.982947 0.021154 0.000000 0.000000 0.000000 12.618263 3.753971 0.846242 12.329194 5.252218 6.282787 13.780007 -2.328817 5.533532 0.000000 0.000000 0.000000 
-2615.567139 1001.980286 1177.852051 8.237674 -5.434813 -0.234264 0.030987 6.036102 1.770829 -0.755510 -1.077417 -0.263984 -0.763591 1.243484 0.290060 0.092080 0.640579 -0.233096 0.000000 0.000000 0.000000 -2.813702 5.729224 -1.896106 -0.117721 4.991496 6.941103 -0.537685 1.305966 -2.774357 0.000000 0.000000 0.000000 4.715090 1.644146 -0.259499 -0.108120 1.034749 -3.261516 0.462503 -0.096906 1.869121 0.000000 0.000000 0.000000 -2.041074 -9.929965 -6.264265 -1.563151 33.349188 4.658057 0.049268 4.472092 0.836428 0.000000 0.000000 0.000000 12.694290 3.294873 0.448326 12.283925 5.635347 6.214958 13.826154 -2.572278 5.514356 0.000000 0.000000 0.000000 
